<?xml version="1.0" encoding="UTF-8" standalone="no"?>
<svg
   xmlns:dc="http://purl.org/dc/elements/1.1/"
   xmlns:cc="http://creativecommons.org/ns#"
   xmlns:rdf="http://www.w3.org/1999/02/22-rdf-syntax-ns#"
   xmlns:svg="http://www.w3.org/2000/svg"
   xmlns="http://www.w3.org/2000/svg"
   xmlns:sodipodi="http://sodipodi.sourceforge.net/DTD/sodipodi-0.dtd"
   xmlns:inkscape="http://www.inkscape.org/namespaces/inkscape"
   width="960"
   height="381.19501"
   overflow="hidden"
   version="1.1"
   id="svg938"
   sodipodi:docname="results_ml.svg"
   style="overflow:hidden"
   inkscape:version="0.92.3 (2405546, 2018-03-11)">
  <metadata
     id="metadata942">
    <rdf:RDF>
      <cc:Work
         rdf:about="">
        <dc:format>image/svg+xml</dc:format>
        <dc:type
           rdf:resource="http://purl.org/dc/dcmitype/StillImage" />
        <dc:title></dc:title>
      </cc:Work>
    </rdf:RDF>
  </metadata>
  <sodipodi:namedview
     pagecolor="#ffffff"
     bordercolor="#666666"
     borderopacity="1"
     objecttolerance="10"
     gridtolerance="10"
     guidetolerance="10"
     inkscape:pageopacity="0"
     inkscape:pageshadow="2"
     inkscape:window-width="1920"
     inkscape:window-height="1017"
     id="namedview940"
     showgrid="false"
     fit-margin-top="0"
     fit-margin-left="0"
     fit-margin-right="0"
     fit-margin-bottom="0"
     inkscape:zoom="0.82617001"
     inkscape:cx="399.00039"
     inkscape:cy="-85.185636"
     inkscape:window-x="-8"
     inkscape:window-y="-8"
     inkscape:window-maximized="1"
     inkscape:current-layer="svg938" />
  <defs
     id="defs818">
    <clipPath
       id="clip0">
      <rect
         x="2"
         y="-336"
         width="1235"
         height="1047"
         id="rect815" />
    </clipPath>
    <clipPath
       id="clip0-4">
      <rect
         x="2"
         y="-336"
         width="1235"
         height="1047"
         id="rect815-6" />
    </clipPath>
    <clipPath
       id="clip0-4-6">
      <rect
         x="2"
         y="-336"
         width="1235"
         height="1047"
         id="rect815-6-6" />
    </clipPath>
    <clipPath
       id="clip0-4-6-7">
      <rect
         x="2"
         y="-336"
         width="1235"
         height="1047"
         id="rect815-6-6-9" />
    </clipPath>
  </defs>
  <g
     style="overflow:hidden"
     clip-path="url(#clip0-4-6-7)"
     transform="matrix(0.79251798,0,0,0.79251798,-10.303725,-172.37266)"
     id="g936">
    <text
       style="font-weight:400;font-size:19px;font-family:Arial, Arial_MSFontService, sans-serif;fill:#ffffff;fill-opacity:1"
       font-weight="400"
       font-size="19"
       transform="rotate(-90,169.9082,140.0918)"
       id="text824">Recall<tspan
   style="font-size:19px;fill:#ffffff;fill-opacity:1"
   font-size="19"
   x="-360"
   y="-2.98263"
   id="tspan820">% not classified as de</tspan>
<tspan
   style="font-size:19px;fill:#ffffff;fill-opacity:1"
   font-size="19"
   x="-174"
   y="-2.98263"
   id="tspan822">Volkskrant</tspan>
</text>
    <path
       style="fill:none;fill-rule:evenodd;stroke:#ffffff;stroke-width:0.71107602;stroke-miterlimit:8"
       inkscape:connector-curvature="0"
       d="m 180.532,217.5 v 108"
       stroke-miterlimit="8"
       id="path826" />
    <path
       style="fill:none;fill-rule:evenodd;stroke:#ffffff;stroke-width:0.71107602;stroke-miterlimit:8"
       inkscape:connector-curvature="0"
       d="m 314.557,217.5 v 108"
       stroke-miterlimit="8"
       id="path828" />
    <path
       style="fill:none;fill-rule:evenodd;stroke:#ffffff;stroke-width:0.71107602;stroke-miterlimit:8"
       inkscape:connector-curvature="0"
       d="m 448.583,217.5 v 108"
       stroke-miterlimit="8"
       id="path830" />
    <path
       style="fill:none;fill-rule:evenodd;stroke:#ffffff;stroke-width:0.71107602;stroke-miterlimit:8"
       inkscape:connector-curvature="0"
       d="m 581.608,217.5 v 108"
       stroke-miterlimit="8"
       id="path832" />
    <path
       style="fill:none;fill-rule:evenodd;stroke:#ffffff;stroke-width:0.71107602;stroke-miterlimit:8"
       inkscape:connector-curvature="0"
       d="m 715.634,217.5 v 108"
       stroke-miterlimit="8"
       id="path834" />
    <path
       style="fill:none;fill-rule:evenodd;stroke:#ffffff;stroke-width:0.71107602;stroke-miterlimit:8"
       inkscape:connector-curvature="0"
       d="M 0.793592,0 V 206"
       stroke-miterlimit="8"
       transform="matrix(-1,0,0,1,850.5,217.5)"
       id="path836" />
    <path
       style="fill:none;fill-rule:evenodd;stroke:#ffffff;stroke-width:0.71107602;stroke-miterlimit:8"
       inkscape:connector-curvature="0"
       d="m 982.684,217.5 v 108"
       stroke-miterlimit="8"
       id="path838" />
    <path
       style="fill:none;fill-rule:evenodd;stroke:#ffffff;stroke-width:0.71107602;stroke-miterlimit:8"
       inkscape:connector-curvature="0"
       d="m 1116.71,217.5 v 108"
       stroke-miterlimit="8"
       id="path840" />
    <path
       style="fill:none;fill-rule:evenodd;stroke:#ffffff;stroke-width:0.71107602;stroke-miterlimit:8"
       inkscape:connector-curvature="0"
       d="M 74.5001,282.524 H 1223.5"
       stroke-miterlimit="8"
       id="path842" />
    <path
       style="fill:none;fill-rule:evenodd;stroke:#ffffff;stroke-width:0.71107602;stroke-miterlimit:8"
       inkscape:connector-curvature="0"
       d="M 74.5001,239.518 H 1223.5"
       stroke-miterlimit="8"
       id="path844" />
    <path
       style="fill:none;fill-rule:evenodd;stroke:#5148fa;stroke-width:3.55558991;stroke-miterlimit:8;stroke-opacity:1"
       inkscape:connector-curvature="0"
       d="m 74.0092,292.8 26.7248,10.039 26.716,-2.357 26.725,-10.45 26.716,-14.211 26.724,-10.73 26.717,-9.076 26.724,4.071 26.717,5.687 26.724,4.262 26.725,1.023 26.716,3.58 26.725,0.07 26.716,-1.273 26.725,1.263 26.716,6.519 26.725,3.51 26.716,3.019 26.725,-1.595 26.724,3.63 26.717,6.72 26.724,3.52 26.716,2.146 26.725,5.395 26.716,1.996 26.725,-2.848 26.724,-9.507 26.717,-4.874 26.724,-0.883 53.441,-13.559 26.717,5.466 53.441,7.191 26.724,5.766 53.439,15.705 26.73,-1.414 26.71,-3.65 26.73,1.464 26.71,-6.679 26.73,-4.724 26.71,0.431 26.73,8.785"
       stroke-miterlimit="8"
       id="path846" />
    <text
       style="font-weight:400;font-size:19px;font-family:Arial, Arial_MSFontService, sans-serif;fill:#fff5ff;fill-opacity:1"
       font-weight="400"
       font-size="19"
       transform="translate(34.7368,330)"
       id="text852">60%<tspan
   style="font-size:19px;fill:#fff5ff;fill-opacity:1"
   font-size="19"
   x="-0.000102997"
   y="-43"
   id="tspan848">70%</tspan>
<tspan
   style="font-size:19px;fill:#fff5ff;fill-opacity:1"
   font-size="19"
   x="-0.000102997"
   y="-86"
   id="tspan850">80%</tspan>
</text>
    <path
       style="fill:none;fill-rule:evenodd;stroke:#ffffff;stroke-width:0.71107602;stroke-miterlimit:8"
       inkscape:connector-curvature="0"
       d="m 180.66,300.5 v 341"
       stroke-miterlimit="8"
       id="path854" />
    <path
       style="fill:none;fill-rule:evenodd;stroke:#ffffff;stroke-width:0.71107602;stroke-miterlimit:8"
       inkscape:connector-curvature="0"
       d="M 0.28717,0 V 341"
       stroke-miterlimit="8"
       transform="matrix(-1,0,0,1,315.5,300.5)"
       id="path856" />
    <path
       style="fill:none;fill-rule:evenodd;stroke:#ffffff;stroke-width:0.71107602;stroke-miterlimit:8"
       inkscape:connector-curvature="0"
       d="m 448.831,308.5 v 333"
       stroke-miterlimit="8"
       id="path858" />
    <path
       style="fill:none;fill-rule:evenodd;stroke:#ffffff;stroke-width:0.71107602;stroke-miterlimit:8"
       inkscape:connector-curvature="0"
       d="m 582.04,320.5 v 321"
       stroke-miterlimit="8"
       id="path860" />
    <path
       style="fill:none;fill-rule:evenodd;stroke:#ffffff;stroke-width:0.71107602;stroke-miterlimit:8"
       inkscape:connector-curvature="0"
       d="M 0.667356,0 V 325"
       stroke-miterlimit="8"
       transform="matrix(-1,0,0,1,716.5,317.5)"
       id="path862" />
    <path
       style="fill:none;fill-rule:evenodd;stroke:#ffffff;stroke-width:0.71107602;stroke-miterlimit:8"
       inkscape:connector-curvature="0"
       d="m 849.659,389.5 v 252"
       stroke-miterlimit="8"
       id="path864" />
    <path
       style="fill:none;fill-rule:evenodd;stroke:#ffffff;stroke-width:0.71107602;stroke-miterlimit:8"
       inkscape:connector-curvature="0"
       d="m 982.421,304.5 v 337"
       stroke-miterlimit="8"
       id="path866" />
    <path
       style="fill:none;fill-rule:evenodd;stroke:#ffffff;stroke-width:0.71107602;stroke-miterlimit:8"
       inkscape:connector-curvature="0"
       d="m 1116.55,320.5 v 321"
       stroke-miterlimit="8"
       id="path868" />
    <path
       style="fill:none;fill-rule:evenodd;stroke:#ffffff;stroke-width:0.71107602;stroke-miterlimit:8"
       inkscape:connector-curvature="0"
       d="M 74.5001,591.569 H 1223.5"
       stroke-miterlimit="8"
       id="path870" />
    <path
       style="fill:none;fill-rule:evenodd;stroke:#ffffff;stroke-width:0.71107602;stroke-miterlimit:8"
       inkscape:connector-curvature="0"
       d="M 74.5001,540.562 H 1223.5"
       stroke-miterlimit="8"
       id="path872" />
    <path
       style="fill:none;fill-rule:evenodd;stroke:#ffffff;stroke-width:0.71107602;stroke-miterlimit:8"
       inkscape:connector-curvature="0"
       d="M 74.5001,490.555 H 1223.5"
       stroke-miterlimit="8"
       id="path874" />
    <path
       style="fill:none;fill-rule:evenodd;stroke:#ffffff;stroke-width:0.71107602;stroke-miterlimit:8"
       inkscape:connector-curvature="0"
       d="M 74.5001,439.547 H 1223.5"
       stroke-miterlimit="8"
       id="path876" />
    <path
       style="fill:none;fill-rule:evenodd;stroke:#ffffff;stroke-width:1.42226005;stroke-miterlimit:8"
       inkscape:connector-curvature="0"
       d="M 74.5001,641.577 H 1223.5"
       stroke-miterlimit="8"
       id="path878" />
    <path
       style="fill:none;fill-rule:evenodd;stroke:#fa489b;stroke-width:3.55558991;stroke-miterlimit:8;stroke-opacity:1"
       inkscape:connector-curvature="0"
       d="m 74.0092,534.142 26.7248,-9.911 26.716,-1.191 26.725,4.647 26.716,7.647 26.724,3.932 26.717,5.75 26.724,2.82 26.717,-3.843 26.724,0.139 26.725,-2.9 26.716,-4.131 26.725,2.542 26.716,-4.399 26.725,2.483 26.716,-3.367 26.725,0.666 53.441,7.984 26.724,0.556 53.441,-14.439 26.716,-1.817 26.725,-1.659 26.716,5.065 26.725,9.285 26.724,14.26 26.717,8.59 26.724,0.189 26.717,-3.138 26.724,2.502 80.158,-12.641 26.724,-0.696 53.439,4.817 26.73,-4.32 26.71,5.243 26.73,-5.352 26.71,-2.701 26.73,-4.529 26.71,-7.219 26.73,-10.755"
       stroke-miterlimit="8"
       id="path880" />
    <path
       style="fill:none;fill-rule:evenodd;stroke:#ff0000;stroke-width:3.55558991;stroke-miterlimit:8;stroke-opacity:1"
       inkscape:connector-curvature="0"
       d="m 74.0092,497.669 26.7248,-6.629 26.716,8.72 26.725,18.251 26.716,21.935 26.724,13.389 26.717,15.267 26.724,-5.279 26.717,-9.917 53.449,0.051 26.716,-4.923 26.725,-4.497 26.716,-0.091 26.725,0.913 26.716,-2.426 26.725,1.675 26.716,8.212 26.725,8.892 26.724,0.03 26.717,1.35 26.724,10.862 26.716,7.887 26.725,4.699 80.165,-0.781 26.717,-3.563 26.724,-4.669 26.717,5.481 26.724,-2.568 26.717,-1.289 53.441,-10.628 26.724,-6.141 26.729,-5.918 26.71,-7.268 53.44,-2.527 26.73,9.704 26.71,9.186 26.73,1.98 26.71,-10.953 26.73,-29.64"
       stroke-miterlimit="8"
       id="path882" />
    <path
       style="fill:none;fill-rule:evenodd;stroke:#8948fa;stroke-width:3.55558991;stroke-miterlimit:8;stroke-opacity:1"
       inkscape:connector-curvature="0"
       d="m 74.0092,551.978 26.7248,-23.736 26.716,-8.266 26.725,2.752 26.716,9.328 26.724,9.308 26.717,11.676 26.724,-2.286 26.717,-9.369 26.724,-16.067 26.725,-7.872 26.716,-7.73 26.725,-2.681 26.716,1.902 26.725,3.693 26.716,-1.315 26.725,4.836 26.716,-6.182 26.725,-1.447 26.724,-8.934 26.717,-16.421 26.724,-16.401 26.716,-11.119 26.725,-16.705 26.716,-3.086 26.725,-4.816 26.724,4.098 26.717,-2.226 26.724,2.418 26.717,9.076 26.724,12.526 26.717,-1.629 26.724,8.195 26.717,4.25 26.724,-1.336 26.729,-8.428 26.71,-1.417 53.44,-2.741 26.73,-7.437 26.71,1.538 26.73,4.826 26.71,8.236 26.73,11.747"
       stroke-miterlimit="8"
       id="path884" />
    <text
       style="font-weight:400;font-size:19px;font-family:Arial, Arial_MSFontService, sans-serif;fill:#fff5ff;fill-opacity:1"
       font-weight="400"
       font-size="19"
       id="text912"
       x="162.43401"
       y="666">1955<tspan
   style="font-size:19px;fill:#fff5ff;fill-opacity:1"
   font-size="19"
   x="296.06699"
   y="666"
   id="tspan886">1960</tspan>
<tspan
   style="font-size:19px;fill:#fff5ff;fill-opacity:1"
   font-size="19"
   x="429.70099"
   y="666"
   id="tspan888">1965</tspan>
<tspan
   style="font-size:19px;fill:#fff5ff;fill-opacity:1"
   font-size="19"
   x="563.33398"
   y="666"
   id="tspan890">1970</tspan>
<tspan
   style="font-size:19px;fill:#fff5ff;fill-opacity:1"
   font-size="19"
   x="696.95905"
   y="666"
   id="tspan892">1975</tspan>
<tspan
   style="font-size:19px;fill:#fff5ff;fill-opacity:1"
   font-size="19"
   x="830.59302"
   y="666"
   id="tspan894">1980</tspan>
<tspan
   style="font-size:19px;fill:#fff5ff;fill-opacity:1"
   font-size="19"
   x="964.22601"
   y="666"
   id="tspan896">1985</tspan>
<tspan
   style="font-size:19px;fill:#fff5ff;fill-opacity:1"
   font-size="19"
   x="1097.859"
   y="666"
   id="tspan898">1990</tspan>
<tspan
   style="font-size:19px;fill:#fff5ff;fill-opacity:1"
   font-size="19"
   x="39.300995"
   y="652"
   id="tspan900">0%</tspan>
<tspan
   style="font-size:19px;fill:#fff5ff;fill-opacity:1"
   font-size="19"
   x="39.300995"
   y="602"
   id="tspan902">5%</tspan>
<tspan
   style="font-size:19px;fill:#fff5ff;fill-opacity:1"
   font-size="19"
   x="30.736002"
   y="551"
   id="tspan904">10%</tspan>
<tspan
   style="font-size:19px;fill:#fff5ff;fill-opacity:1"
   font-size="19"
   x="30.736002"
   y="501"
   id="tspan906">15%</tspan>
<tspan
   style="font-size:19px;fill:#fff5ff;fill-opacity:1"
   font-size="19"
   x="30.736002"
   y="450"
   id="tspan908">20%</tspan>
<tspan
   style="font-size:17px;fill:#fff5ff;fill-opacity:1"
   font-size="17"
   x="629.36798"
   y="698"
   id="tspan910" />
</text>
    <text
       style="font-weight:400;font-size:19px;font-family:Arial, Arial_MSFontService, sans-serif;fill:#ffffff;fill-opacity:1"
       font-weight="400"
       font-size="19"
       transform="translate(1027.66,440)"
       id="text916">Trouw</text>
    <text
       style="font-weight:400;font-size:19px;font-family:Arial, Arial_MSFontService, sans-serif;fill:#ffffff;fill-opacity:1"
       font-weight="400"
       font-size="19"
       transform="translate(1094.38,285)"
       id="text922">de <tspan
   style="font-size:19px;fill:#ffffff;fill-opacity:1"
   font-size="19"
   x="25.833401"
   y="0"
   id="tspan920">Volkskrant</tspan>
</text>
    <text
       style="font-weight:400;font-size:19px;font-family:Arial, Arial_MSFontService, sans-serif;fill:#ffffff;fill-opacity:1"
       font-weight="400"
       font-size="19"
       transform="translate(869.683,535)"
       id="text928">Algemeen<tspan
   style="font-size:19px;fill:#ffffff;fill-opacity:1"
   font-size="19"
   x="89"
   y="0"
   id="tspan926">Dagblad</tspan>
</text>
    <text
       style="font-weight:400;font-size:19px;font-family:Arial, Arial_MSFontService, sans-serif;fill:#ffffff;fill-opacity:1"
       font-weight="400"
       font-size="19"
       transform="translate(709.319,611)"
       id="text934">de <tspan
   style="font-size:19px;fill:#ffffff;fill-opacity:1"
   font-size="19"
   x="25.493299"
   y="0"
   id="tspan932">Telegraaf</tspan>
</text>
    <text
       xml:space="preserve"
       style="font-style:normal;font-weight:normal;font-size:50.47203827px;line-height:125%;font-family:sans-serif;letter-spacing:0px;word-spacing:0px;fill:#000000;fill-opacity:1;stroke:none;stroke-width:1.261801px;stroke-linecap:butt;stroke-linejoin:miter;stroke-opacity:1"
       x="633.7851"
       y="693.88947"
       id="text2123"><tspan
         sodipodi:role="line"
         id="tspan2121"
         x="633.7851"
         y="693.88947"
         style="font-style:normal;font-variant:normal;font-weight:normal;font-stretch:normal;font-size:21.87121773px;font-family:Arial;-inkscape-font-specification:Arial;fill:#ffffff;fill-opacity:1;stroke-width:1.261801px">year</tspan></text>
  </g>
</svg>
